#!OML:ASF H:\Terrain\Patient Classification 1\Walking\liu\liu.ASF
:FULLY-SPECIFIED
:DEGREES
155
root 9.32446 16.2402 -11.0658 5.05161 8.40717 4.92807
lowerback -7.90753 -4.52718 -7.27119
upperback -0.0781337 -5.44569 1.71399
thorax 5.20483 -2.89985 5.17174
lowerneck -19.722 -4.90064 -12.7446
upperneck 20.0935 -6.07119 12.8126
head 10.5045 -2.32191 5.85523
rclavicle 1.64246e-014 1.66979e-014
rhumerus -48.3463 9.0135 -86.9547
rradius 29.9498
rwrist -14.677
rhand -28.1334 -24.5663
rfingers 7.12502
rthumb -1.51476 -54.5407
lclavicle 1.64246e-014 1.66979e-014
lhumerus -26.0809 -22.418 96.729
lradius 37.889
lwrist 7.07634
lhand -12.5742 -26.1738
lfingers 7.12502
lthumb 13.5037 3.36844
rfemur -38.1641 -0.877291 14.8989
rtibia 35.3709
rfoot -6.9929 -8.38965
rtoes -18.2931
lfemur 23.2314 5.99607 -23.0917
ltibia -1.59028e-014
lfoot -8.62762 -1.7474
ltoes -14.1509
156
root 9.29494 16.24 -10.8898 5.02782 8.20391 4.66254
lowerback -8.16585 -4.38151 -7.14616
upperback -0.067182 -5.24862 1.81349
thorax 5.33045 -2.8048 5.21908
lowerneck -19.5411 -4.95978 -13.074
upperneck 20.0029 -6.14857 13.1395
head 10.4732 -2.35292 6.02114
rclavicle 1.91082e-014 2.38542e-015
rhumerus -48.0724 8.67986 -86.6257
rradius 29.7616
rwrist -13.8572
rhand -27.9772 -27.6022
rfingers 7.12502
rthumb -1.36385 -57.5776
lclavicle 1.91082e-014 2.38542e-015
lhumerus -26.5156 -21.8918 97.088
lradius 36.6588
lwrist 5.92243
lhand -13.3666 -26.5798
lfingers 7.12502
lthumb 12.7398 3.01158
rfemur -38.1047 -1.09342 15.561
rtibia 36.3036
rfoot -7.09925 -7.6263
rtoes -17.349
lfemur 23.7608 6.45935 -22.4312
ltibia 2.54444e-014
lfoot -7.21173 -1.76717
ltoes -14.0088
157
root 9.2678 16.2503 -10.7151 4.90292 8.15703 4.74385
lowerback -8.22 -4.34483 -7.28042
upperback -0.0103545 -5.17844 1.75326
thorax 5.41733 -2.77695 5.23563
lowerneck -19.2106 -4.89208 -13.2142
upperneck 19.6623 -6.07333 13.3615
head 10.2899 -2.31549 6.12796
rclavicle -5.24295e-015 7.95139e-016
rhumerus -47.8471 8.66475 -86.6339
rradius 29.5253
rwrist -13.7632
rhand -28.2447 -28.0243
rfingers 7.12502
rthumb -1.62226 -57.9979
lclavicle -5.24295e-015 7.95139e-016
lhumerus -26.9279 -20.9885 97.2495
lradius 35.2501
lwrist 4.28032
lhand -14.6507 -27.6411
lfingers 7.12502
lthumb 11.5016 2.02333
rfemur -37.7016 -1.40458 15.7699
rtibia 37.0609
rfoot -7.62397 -6.84454
rtoes -15.2555
lfemur 24.385 6.75944 -22.1503
ltibia -3.18055e-014
lfoot -5.56153 -1.62455
ltoes -13.6398
158
root 9.2355 16.2763 -10.5461 4.77956 8.24372 4.51278
lowerback -8.12443 -4.3828 -7.22035
upperback -0.0353834 -5.24638 1.82409
thorax 5.34853 -2.80751 5.27375
lowerneck -19.2724 -4.81615 -12.8318
upperneck 19.7639 -5.97913 12.9367
head 10.2947 -2.28695 5.91882
rclavicle 7.53518e-014 -2.3059e-014
rhumerus -47.8335 9.02928 -86.8706
rradius 29.5037
rwrist -14.5124
rhand -28.538 -26.2179
rfingers 7.12502
rthumb -1.90552 -56.1891
lclavicle 7.53518e-014 -2.3059e-014
lhumerus -27.2837 -19.6872 97.2322
lradius 33.9893
lwrist 2.97824
lhand -14.8396 -28.1186
lfingers 7.12502
lthumb 11.3195 1.55591
rfemur -37.1951 -1.66818 16.3253
rtibia 37.648
rfoot -8.24857 -6.25916
rtoes -13.4895
lfemur 24.934 6.94627 -21.5427
ltibia 3.18055e-015
lfoot -3.8539 -1.30299
ltoes -13.8805
159
root 9.20167 16.3062 -10.3844 4.80678 8.29381 4.25469
lowerback -8.17758 -4.47015 -7.15233
upperback -0.0682512 -5.36964 1.89234
thorax 5.36266 -2.86717 5.28635
lowerneck -19.5932 -4.73768 -12.4154
upperneck 20.0039 -5.91802 12.6849
head 10.4091 -2.24393 5.77028
rclavicle -8.21353e-014 2.54444e-014
rhumerus -48.0016 9.65924 -87.2511
rradius 30.1077
rwrist -14.9004
rhand -27.9398 -27.684
rfingers 7.12502
rthumb -1.32775 -57.6596
lclavicle -8.21353e-014 2.54444e-014
lhumerus -27.6324 -18.3062 97.0529
lradius 32.8971
lwrist 1.94258
lhand -14.5196 -27.9987
lfingers 7.12502
lthumb 11.6281 1.6587
rfemur -36.7945 -1.84913 16.9019
rtibia 38.0482
rfoot -8.81246 -5.85235
rtoes -12.7678
lfemur 25.3043 7.1709 -20.9513
ltibia -2.22639e-014
lfoot -2.01478 -0.843255
ltoes -15.3321
160
root 9.16622 16.3265 -10.2266 4.89038 8.30593 4.11653
lowerback -8.28295 -4.41936 -7.09044
upperback -0.0979408 -5.29912 1.86719
thorax 5.37146 -2.82929 5.2301
lowerneck -19.7738 -4.82958 -12.494
upperneck 20.1557 -6.07678 12.9196
head 10.5333 -2.29101 5.85428
rclavicle -8.27441e-015 1.74931e-014
rhumerus -48.0792 9.6898 -87.3283
rradius 30.5329
rwrist -14.8783
rhand -27.7709 -28.841
rfingers 7.12502
rthumb -1.16469 -58.8176
lclavicle -8.27441e-015 1.74931e-014
lhumerus -27.9693 -17.2067 96.9633
lradius 31.6992
lwrist 0.760301
lhand -14.395 -27.6553
lfingers 7.12502
lthumb 11.7482 1.99521
rfemur -36.3937 -1.86893 17.2942
rtibia 38.239
rfoot -9.07078 -5.6145
rtoes -12.7728
lfemur 25.5226 7.43339 -20.5003
ltibia 3.49861e-014
lfoot 0.363605 -0.13948
ltoes -18.4614
161
root 9.13027 16.3448 -10.0648 4.76412 8.34376 3.61113
lowerback -8.20977 -4.30327 -6.67564
upperback -0.147809 -5.19525 1.96785
thorax 5.23316 -2.76351 5.12706
lowerneck -19.8081 -4.95672 -12.7123
upperneck 20.4125 -6.24283 13.0504
head 10.6706 -2.36886 5.92609
rclavicle -1.54679e-014 -2.38542e-015
rhumerus -47.5071 8.81311 -86.5688
rradius 29.8485
rwrist -13.3169
rhand -26.8845 -28.3213
rfingers 7.12502
rthumb -0.308577 -58.3008
lclavicle -1.54679e-014 -2.38542e-015
lhumerus -28.3511 -16.2449 96.9855
lradius 30.4731
lwrist -0.2111
lhand -14.3929 -27.1773
lfingers 7.12502
lthumb 11.7503 2.47311
rfemur -35.6837 -1.69028 18.0513
rtibia 38.2448
rfoot -9.36687 -5.49057
rtoes -12.0663
lfemur 25.926 7.68106 -19.5941
ltibia -6.36111e-015
lfoot 2.90557 0.658681
ltoes -19.6329
162
root 9.10005 16.3669 -9.90017 4.49746 8.48475 3.06044
lowerback -8.03769 -4.3173 -6.22337
upperback -0.18377 -5.27573 2.11571
thorax 5.08214 -2.78951 5.03031
lowerneck -19.514 -4.93071 -12.8344
upperneck 20.3738 -6.19564 13.0356
head 10.5968 -2.36858 5.94738
rclavicle -1.45982e-014 -1.59028e-015
rhumerus -47.0834 8.80719 -86.3402
rradius 29.5861
rwrist -12.6991
rhand -26.22 -28.3758
rfingers 7.12502
rthumb 0.333298 -58.3553
lclavicle -1.45982e-014 -1.59028e-015
lhumerus -28.8085 -15.2128 96.9643
lradius 29.2702
lwrist -0.768718
lhand -14.6392 -26.9498
lfingers 7.12502
lthumb 11.5127 2.71405
rfemur -34.6883 -1.6764 18.871
rtibia 38.0719
rfoot -9.67839 -5.26307
rtoes -10.4659
lfemur 23.6595 8.03789 -18.5394
ltibia 5.55516
lfoot 2.56119 0.745079
ltoes -18.332
163
root 9.06633 16.3943 -9.7445 4.41955 8.70959 2.32044
lowerback -8.06848 -4.33515 -5.61018
upperback -0.174425 -5.36325 2.28537
thorax 5.08027 -2.82056 4.84998
lowerneck -19.2057 -4.89477 -12.8115
upperneck 20.0118 -6.16724 13.0861
head 10.4045 -2.35813 5.95246
rclavicle -3.42904e-014 3.18055e-015
rhumerus -46.8477 9.22356 -86.6175
rradius 29.7768
rwrist -13.3025
rhand -26.1753 -26.7941
rfingers 7.12502
rthumb 0.376445 -56.7735
lclavicle -3.42904e-014 3.18055e-015
lhumerus -29.0329 -14.713 96.8324
lradius 28.0994
lwrist -0.712784
lhand -14.6038 -26.6461
lfingers 7.12502
lthumb 11.5469 3.0158
rfemur -33.8632 -1.73755 19.9173
rtibia 37.7149
rfoot -9.94384 -5.0696
rtoes -9.28381
lfemur 20.1433 8.42407 -17.2664
ltibia 12.7851
lfoot 1.51092 0.400558
ltoes -18.7992
164
root 9.02979 16.4255 -9.59089 4.34315 8.91068 1.38843
lowerback -7.99121 -4.34426 -4.91386
upperback -0.207863 -5.45564 2.5236
thorax 4.97099 -2.84987 4.70363
lowerneck -19.2028 -4.83765 -12.5259
upperneck 19.9212 -6.14139 12.9892
head 10.3541 -2.33456 5.86658
rclavicle 3.0706e-014 -1.90833e-014
rhumerus -46.7098 9.36499 -86.7271
rradius 29.9291
rwrist -13.4423
rhand -26.1694 -25.701
rfingers 7.12502
rthumb 0.382097 -55.6804
lclavicle 3.0706e-014 -1.90833e-014
lhumerus -29.3237 -14.4338 96.674
lradius 27.1226
lwrist -0.266959
lhand -14.1796 -26.1412
lfingers 7.12502
lthumb 11.9559 3.49738
rfemur -33.0198 -1.71274 21.1465
rtibia 37.2427
rfoot -10.4897 -4.98265
rtoes -8.31741
lfemur 17.6959 8.96162 -15.7552
ltibia 17.8511
lfoot 1.68567 0.111229
ltoes -19.0896
165
root 8.99495 16.4529 -9.43574 4.22426 9.13747 0.795178
lowerback -7.77032 -4.40881 -4.60743
upperback -0.320207 -5.59017 2.76117
thorax 4.74023 -2.90601 4.78228
lowerneck -19.3732 -4.85187 -12.3929
upperneck 20.2564 -6.15577 12.7553
head 10.4955 -2.3509 5.76543
rclavicle -7.75384e-014 1.11319e-014
rhumerus -46.8106 9.76199 -86.761
rradius 30.4401
rwrist -13.584
rhand -26.337 -26.9205
rfingers 7.12502
rthumb 0.220213 -56.9001
lclavicle -7.75384e-014 1.11319e-014
lhumerus -29.6531 -12.9076 96.3356
lradius 26.0484
lwrist -1.02848
lhand -13.7559 -25.8574
lfingers 7.12502
lthumb 12.3645 3.75694
rfemur -32.0411 -1.62042 21.9551
rtibia 36.6818
rfoot -11.0623 -5.0604
rtoes -8.05124
lfemur 15.7067 9.40161 -14.6258
ltibia 22.2941
lfoot 2.3354 0.422572
ltoes -13.3457
